<?xml version="1.0" encoding="UTF-8" standalone="no"?>
<!DOCTYPE svg PUBLIC "-//W3C//DTD SVG 1.1//EN" "http://www.w3.org/Graphics/SVG/1.1/DTD/svg11.dtd">
<svg height="16" viewBox="0 0 16 16" width="16" version="1.1" xmlns="http://www.w3.org/2000/svg" xmlns:xlink="http://www.w3.org/1999/xlink" xml:space="preserve" xmlns:serif="http://www.serif.com/" style="fill-rule:evenodd;clip-rule:evenodd;stroke-linejoin:round;stroke-miterlimit:2;">
    <path d="M7,1L6.436,3.258C6.199,3.334 5.969,3.427 5.746,3.538L3.758,2.343L2.344,3.758L3.539,5.752L3.254,6.437L1,7L1,9L6.27,9C6.093,8.695 6,8.349 6,7.996C6,6.899 6.903,5.996 8,5.996C9.097,5.996 10,6.899 10,7.996C10,8.349 9.907,8.695 9.73,9L15,9L15,7L12.742,6.435C12.666,6.199 12.572,5.97 12.462,5.748L13.656,3.758L12.242,2.344L10.248,3.539C10.027,3.427 9.797,3.332 9.562,3.254L9,1L7,1Z" style="fill:rgb(224,224,224);fill-rule:nonzero;"/>
    <path d="M15,12.5C15,13.88 13.88,15 12.5,15L3.5,15C2.12,15 1,13.88 1,12.5C1,11.12 2.12,10 3.5,10L12.5,10C13.88,10 15,11.12 15,12.5Z" style="fill:rgb(255,218,95);"/>
    <g transform="matrix(0.571429,0,0,1,6.428571,0)">
        <path d="M15,12.5C15,13.88 13.04,15 10.625,15L2.75,15L2.75,10L10.625,10C13.04,10 15,11.12 15,12.5Z" style="fill:rgb(255,200,41);"/>
    </g>
</svg>
