<?xml version="1.0" encoding="UTF-8" standalone="no"?>
<!DOCTYPE svg PUBLIC "-//W3C//DTD SVG 1.1//EN" "http://www.w3.org/Graphics/SVG/1.1/DTD/svg11.dtd">
<svg height="16" viewBox="0 0 16 16" width="16" version="1.1" xmlns="http://www.w3.org/2000/svg" xmlns:xlink="http://www.w3.org/1999/xlink" xml:space="preserve" xmlns:serif="http://www.serif.com/" style="fill-rule:evenodd;clip-rule:evenodd;stroke-linejoin:round;stroke-miterlimit:2;">
    <path d="M7,1L6.436,3.258C6.199,3.334 5.969,3.427 5.746,3.538L3.758,2.343L2.344,3.758L3.539,5.752L3.254,6.437L1,7L1,9L6.27,9C6.093,8.695 6,8.349 6,7.996C6,6.899 6.903,5.996 8,5.996C9.097,5.996 10,6.899 10,7.996C10,8.349 9.907,8.695 9.73,9L15,9L15,7L12.742,6.435C12.666,6.199 12.572,5.97 12.462,5.748L13.656,3.758L12.242,2.344L10.248,3.539C10.027,3.427 9.797,3.332 9.562,3.254L9,1L7,1Z" style="fill:rgb(224,224,224);fill-rule:nonzero;"/>
    <g transform="matrix(1.04463,0,0,1.04463,-0.637841,-0.681276)">
        <g transform="matrix(0.0264047,0,0,0.0264047,1.27202,3.31788)">
            <path d="M175.668,266.251C188.349,266.251 199.511,268.032 209.152,271.593C218.793,275.154 223.614,279.975 223.614,286.055C223.614,292.135 221.312,299.649 216.709,308.595C212.105,317.542 208.24,322.015 205.113,322.015C204.245,322.015 203.246,321.537 202.116,320.582C200.987,319.626 198.382,318.584 194.299,317.455C190.217,316.326 186.699,315.761 183.746,315.761C173.67,315.761 165.549,319.322 159.382,326.445C153.215,333.567 150.132,344.468 150.132,359.147C150.132,373.826 153.302,384.727 159.643,391.849C165.983,398.972 174.018,402.533 183.746,402.533C187.741,402.533 192.215,401.968 197.166,400.839C202.116,399.71 205.634,398.103 207.719,396.018C208.066,395.671 208.761,395.497 209.803,395.497C210.846,395.497 212.8,397.452 215.666,401.36C218.533,405.269 221.182,410.394 223.614,416.734C226.046,423.075 227.262,427.982 227.262,431.457C227.262,438.232 222.051,443.617 211.627,447.613C201.204,451.608 188.871,453.606 174.626,453.606C151.695,453.606 132.847,445.528 118.081,429.372C103.315,413.216 95.932,390.416 95.932,360.971C95.932,331.526 103.532,308.378 118.732,291.527C133.932,274.677 152.911,266.251 175.668,266.251Z" style="fill:rgb(224,224,224);fill-rule:nonzero;"/>
            <path d="M417.743,372.827C420.87,372.827 423.129,375.346 424.518,380.384C425.387,383.163 425.821,385.813 425.821,388.331C425.821,390.85 425.561,393.239 425.039,395.497C423.823,400.535 421.565,403.054 418.264,403.054L379.178,403.315L364.325,447.352C363.283,449.958 360.677,451.261 356.508,451.261C352.86,451.261 349.038,450.305 345.043,448.394C337.052,444.572 334.011,440.664 335.922,436.668L347.127,403.315L316.9,403.315L302.047,447.091C301.179,449.523 298.747,450.739 294.751,450.739C290.756,450.739 286.76,449.784 282.765,447.873C274.774,444.051 271.734,440.143 273.645,436.147L284.589,403.315L265.046,403.315C263.135,403.315 261.571,402.272 260.355,400.188C258.792,397.756 258.01,394.889 258.01,391.589C258.01,388.288 258.184,385.335 258.531,382.729C258.879,380.123 259.791,377.822 261.267,375.824C262.744,373.826 264.438,372.914 266.349,373.088L295.012,373.088L304.132,345.988L274.426,345.988C272.515,345.988 270.952,344.945 269.736,342.861C268.173,340.429 267.391,337.562 267.391,334.262C267.391,330.961 267.565,328.008 267.912,325.402C268.259,322.796 269.171,320.495 270.648,318.497C272.125,316.499 273.818,315.587 275.729,315.761L314.295,315.761L327.323,277.456C328.366,274.677 331.145,273.287 335.662,273.287C339.136,273.287 342.871,274.156 346.867,275.893C354.684,279.367 357.898,282.928 356.508,286.576L346.606,315.761L376.833,315.761L389.601,277.717C390.991,273.895 395.247,272.766 402.369,274.329C409.665,275.719 414.703,278.151 417.483,281.625C419.046,283.536 419.48,285.36 418.786,287.098L409.144,315.5L427.124,315.5C430.251,315.5 432.509,318.019 433.899,323.057C434.768,325.837 435.202,328.486 435.202,331.005C435.202,333.524 434.941,335.912 434.42,338.17C433.204,343.208 430.946,345.727 427.645,345.727L398.721,345.727L389.601,372.827L417.743,372.827ZM334.359,343.643L323.675,375.433L359.114,375.433L369.797,343.643L334.359,343.643Z" style="fill:rgb(224,224,224);fill-rule:nonzero;"/>
        </g>
    </g>
</svg>
